<?xml version="1.0" standalone="no"?>
<!DOCTYPE svg PUBLIC "-//W3C//DTD SVG 20010904//EN"
 "http://www.w3.org/TR/2001/REC-SVG-20010904/DTD/svg10.dtd">
<svg version="1.0" xmlns="http://www.w3.org/2000/svg"
 width="354.000000pt" height="354.000000pt" viewBox="0 0 354.000000 354.000000"
 preserveAspectRatio="xMidYMid meet">
<metadata>
Created by potrace 1.14, written by Peter Selinger 2001-2017
</metadata>
<g transform="translate(0.000000,354.000000) scale(0.100000,-0.100000)"
fill="#000000" stroke="none">
<path d="M1942 3424 c-12 -8 -20 -19 -17 -24 3 -5 -2 -15 -10 -24 -9 -8 -16
-19 -17 -23 -8 -43 -28 -65 -78 -90 -30 -16 -57 -31 -58 -36 -2 -4 -7 -5 -12
-2 -10 6 -30 -18 -35 -43 -3 -15 12 -27 72 -58 65 -34 108 -71 112 -96 1 -5
11 -28 23 -53 25 -51 52 -59 83 -25 10 11 15 20 10 20 -4 0 -2 7 5 14 6 8 21
34 33 57 18 35 35 49 98 81 55 29 76 45 74 56 -2 10 -4 20 -4 25 -1 4 -34 24
-75 44 -71 35 -75 39 -106 102 -29 59 -53 91 -70 91 -3 0 -16 -7 -28 -16z"/>
<path d="M825 3396 c-48 -21 -64 -53 -59 -120 2 -32 8 -64 14 -70 5 -7 7 -16
4 -19 -3 -3 -2 -12 2 -19 5 -7 9 -18 10 -24 7 -46 38 -128 57 -149 45 -52 136
-46 174 11 16 26 27 114 13 114 -4 0 -7 6 -8 13 -2 23 -9 62 -15 77 -3 8 -13
43 -23 77 -26 99 -95 143 -169 109z"/>
<path d="M2604 3392 c-8 -7 -14 -10 -14 -6 0 16 -41 -47 -43 -66 -1 -11 -5
-20 -10 -20 -4 0 -5 -4 -2 -10 3 -5 1 -18 -4 -28 -6 -11 -12 -30 -15 -43 -2
-13 -11 -50 -20 -81 -17 -65 -13 -99 14 -139 56 -77 186 -38 204 61 2 14 5 25
6 25 1 0 3 7 5 15 2 8 6 24 9 35 3 11 10 40 16 65 6 25 15 52 19 60 4 8 3 35
-3 60 -8 33 -20 50 -45 67 -38 26 -95 28 -117 5z"/>
<path d="M1540 3187 c-8 -7 -30 -44 -49 -84 -19 -40 -37 -71 -41 -70 -3 1 -36
-14 -73 -33 -56 -29 -67 -39 -67 -60 0 -22 11 -31 75 -63 73 -36 76 -39 111
-109 20 -40 41 -76 46 -79 19 -12 51 4 62 33 6 15 14 28 17 28 4 0 10 12 14
28 9 42 34 65 107 100 87 43 99 76 37 104 -16 7 -29 17 -29 21 0 5 -4 5 -10 2
-5 -3 -10 -1 -10 4 0 6 -3 10 -7 9 -25 -6 -63 30 -89 83 -27 58 -58 99 -72 99
-4 0 -14 -6 -22 -13z"/>
<path d="M2957 3132 c-31 -4 -176 -134 -228 -205 -59 -80 -16 -178 79 -182 26
-1 53 3 61 9 48 37 212 210 214 226 2 11 5 22 8 25 9 8 -2 65 -12 65 -5 0 -9
6 -9 13 0 7 -17 21 -37 32 -45 23 -41 22 -76 17z"/>
<path d="M478 3101 c-25 -22 -32 -37 -34 -72 -1 -27 4 -54 13 -69 31 -47 204
-209 231 -214 79 -17 142 34 142 116 0 40 -5 47 -113 155 -112 112 -113 113
-160 113 -37 0 -53 -6 -79 -29z"/>
<path d="M193 2763 c-51 -26 -73 -72 -61 -125 13 -60 37 -75 181 -115 143 -39
162 -41 207 -18 92 47 63 195 -41 212 -19 2 -39 9 -45 14 -6 5 -14 6 -17 2 -4
-3 -13 0 -22 7 -9 7 -18 10 -21 7 -3 -3 -18 -1 -33 5 -62 24 -115 28 -148 11z"/>
<path d="M3269 2775 c-3 -2 -20 -7 -38 -10 -19 -3 -42 -10 -53 -16 -10 -5 -23
-7 -28 -4 -6 3 -10 1 -10 -6 0 -7 -3 -10 -6 -7 -3 4 -20 2 -37 -3 -18 -6 -43
-12 -57 -15 -59 -12 -106 -106 -78 -158 13 -25 59 -66 68 -61 3 2 12 0 19 -4
7 -5 35 -3 62 4 27 7 52 14 54 14 3 1 6 1 8 2 1 0 9 2 17 4 8 1 49 13 90 25
72 21 118 55 121 88 1 6 2 22 3 35 3 35 -41 97 -74 105 -37 9 -57 11 -61 7z"/>
<path d="M829 2677 c-14 -11 -49 -84 -81 -172 -6 -16 -16 -33 -22 -37 -6 -4
-7 -10 -3 -14 4 -4 3 -12 -2 -18 -5 -6 -19 -36 -31 -66 -12 -30 -28 -71 -37
-90 -30 -69 -127 -312 -129 -322 -1 -5 -3 -10 -4 -13 -1 -3 -4 -9 -5 -15 -1
-5 -3 -11 -5 -12 -14 -18 -22 -248 -8 -248 4 0 8 -10 8 -23 0 -13 5 -28 12
-35 7 -7 9 -12 4 -12 -7 0 48 -110 69 -138 35 -47 163 -168 177 -167 4 0 15
-7 25 -15 10 -9 20 -16 23 -16 3 0 21 -8 40 -16 19 -9 44 -19 55 -24 104 -40
325 -42 397 -3 10 5 18 7 18 3 0 -3 7 -1 15 6 8 7 15 10 15 7 0 -8 124 64 128
75 2 4 9 8 15 8 18 0 113 105 141 155 40 72 61 150 71 264 2 25 5 46 5 46 2 0
18 112 26 186 7 56 6 56 -26 73 -18 9 -35 14 -37 12 -5 -4 -10 -31 -18 -97 -4
-30 -10 -74 -15 -99 -5 -24 -6 -48 -4 -52 15 -24 -148 -33 -226 -13 -14 3 -36
8 -49 11 -14 3 -29 8 -35 12 -6 3 -17 7 -24 8 -7 1 -56 24 -110 50 -53 26 -99
48 -102 48 -3 1 -12 6 -20 11 -29 18 -176 96 -235 124 -77 36 -92 42 -137 55
-16 5 -28 10 -28 12 0 4 64 164 80 199 32 72 50 115 50 120 0 9 38 96 55 125
8 14 20 23 27 22 7 -2 22 -6 33 -9 40 -9 50 -11 50 -13 0 -1 7 -3 16 -5 9 -1
43 -11 75 -20 33 -9 68 -19 79 -21 35 -7 58 -13 147 -38 l88 -25 4 22 c11 62
13 61 -117 95 -67 17 -189 49 -272 71 -82 23 -150 41 -150 41 0 -1 -7 -6 -16
-13z"/>
<path d="M2630 2675 c-25 -8 -49 -14 -55 -13 -5 1 -23 -4 -38 -10 -16 -7 -34
-12 -41 -12 -7 0 -38 -9 -69 -19 -32 -11 -57 -18 -57 -15 0 3 -8 0 -17 -5 -10
-5 -34 -12 -53 -15 -19 -3 -62 -14 -95 -24 -63 -19 -64 -20 -56 -88 1 -13 31
-14 31 -1 0 6 3 8 6 5 3 -3 44 5 92 19 48 13 98 26 112 29 14 3 34 8 45 11 11
4 25 8 30 9 6 1 51 13 102 27 l92 25 51 -126 c28 -70 58 -141 66 -159 8 -17
14 -33 14 -36 0 -2 8 -22 17 -43 9 -22 17 -41 18 -44 1 -3 7 -18 14 -34 13
-31 10 -38 -17 -41 -20 -2 -98 -35 -157 -66 -261 -137 -434 -220 -500 -239
-80 -23 -187 -33 -249 -23 -29 4 -33 9 -34 37 0 17 -2 40 -5 51 -6 28 -21 157
-20 173 1 16 -7 15 -45 -4 -30 -15 -37 -26 -32 -49 1 -5 4 -23 6 -38 8 -64 15
-114 20 -147 3 -19 7 -51 9 -70 6 -45 16 -110 22 -135 3 -11 7 -31 10 -45 10
-43 71 -136 127 -194 29 -31 56 -56 59 -56 3 0 27 -13 54 -30 55 -34 140 -68
198 -78 80 -13 265 -5 295 13 5 3 18 8 29 10 28 5 109 44 116 55 4 6 11 8 16
5 5 -4 9 -1 9 4 0 6 4 11 10 11 23 0 180 154 180 177 0 7 4 13 10 13 5 0 12
11 16 25 3 14 9 25 13 25 10 0 51 128 54 170 2 19 5 40 9 45 3 6 4 19 1 30 -2
11 -6 38 -8 60 -7 67 -10 80 -16 85 -6 6 -178 428 -184 454 -2 10 -9 24 -16
32 -6 8 -8 14 -5 14 4 0 1 12 -7 28 -8 15 -19 38 -25 52 -5 14 -18 42 -27 64
-9 21 -18 45 -19 52 -3 17 -43 64 -53 63 -5 0 -28 -7 -53 -14z"/>
<path d="M1583 2642 c-13 -2 -23 -8 -23 -13 0 -5 -6 -9 -14 -9 -15 0 -55 -50
-72 -90 -10 -22 -10 -60 -1 -120 5 -33 51 -91 128 -161 45 -41 97 -89 117
-106 19 -18 40 -33 47 -33 7 0 37 21 66 48 211 189 232 219 233 318 1 53 -3
65 -32 101 -48 61 -102 78 -192 60 -8 -1 -28 -11 -43 -21 -28 -19 -29 -19 -69
4 -38 21 -97 31 -145 22z"/>
<path d="M562 1307 c-6 -28 -11 -61 -10 -72 1 -27 56 -105 73 -105 7 0 15 -4
17 -9 3 -8 270 -86 378 -111 19 -5 50 -13 68 -18 17 -6 32 -8 32 -5 0 3 6 1
13 -4 19 -15 98 -9 137 10 36 17 68 59 75 98 2 11 7 29 10 40 7 21 -6 25 -33
10 -40 -21 -267 -34 -332 -19 -94 22 -132 36 -194 68 -77 39 -94 51 -171 122
l-52 48 -11 -53z"/>
<path d="M2933 1338 c-4 -8 -33 -34 -63 -58 -30 -25 -58 -49 -62 -55 -4 -5 -8
-6 -8 -1 0 5 -8 2 -17 -7 -30 -26 -128 -66 -210 -86 -105 -25 -281 -20 -360
10 -36 13 -46 11 -38 -8 4 -10 9 -29 11 -42 17 -88 108 -134 217 -109 23 5 49
11 57 13 8 2 15 4 15 5 0 1 7 3 15 5 8 2 51 14 95 26 44 12 87 22 95 23 9 1
20 5 25 8 6 3 26 9 45 14 19 4 37 9 40 9 3 1 26 7 53 15 59 16 123 75 132 123
13 68 -18 153 -42 115z"/>
<path d="M704 1001 c4 -5 2 -12 -3 -15 -5 -4 -12 -25 -16 -49 -4 -23 -11 -49
-16 -58 -4 -9 -11 -29 -14 -45 -3 -16 -22 -93 -43 -171 l-38 -141 61 -17 c34
-9 68 -17 76 -18 8 -2 20 -6 27 -10 6 -5 12 -6 12 -3 0 3 26 -4 58 -15 31 -11
58 -19 60 -19 1 1 16 -2 33 -5 35 -8 46 -1 52 35 6 30 55 208 64 230 3 8 7 22
8 30 1 8 6 29 9 45 4 17 8 36 8 43 1 6 6 12 11 12 5 0 7 6 4 14 -3 8 -3 17 1
20 3 4 8 18 9 31 3 22 -1 25 -37 31 -22 4 -40 11 -40 16 0 5 -4 7 -9 4 -4 -3
-23 -1 -42 5 -19 5 -42 12 -51 15 -10 2 -28 7 -40 10 -13 3 -31 7 -40 7 -10 1
-18 5 -18 10 0 5 -6 7 -14 4 -8 -3 -17 -3 -20 1 -11 11 -58 14 -52 3z"/>
<path d="M2787 1003 c-3 -2 -14 -6 -26 -8 -13 -2 -31 -7 -41 -10 -10 -3 -29
-8 -42 -11 -30 -7 -40 -10 -58 -17 -8 -4 -26 -9 -40 -11 -112 -23 -122 -27
-115 -50 3 -11 8 -30 10 -41 8 -41 11 -50 19 -63 4 -7 5 -16 2 -19 -3 -3 -2
-11 3 -17 5 -6 12 -24 15 -41 3 -16 12 -57 22 -90 9 -33 18 -67 20 -75 2 -8 8
-33 14 -55 6 -22 12 -46 12 -53 1 -9 11 -12 32 -8 58 9 89 17 108 27 10 5 23
7 28 4 6 -3 10 -1 10 6 0 7 3 10 6 6 3 -3 27 1 52 8 26 8 67 19 91 25 46 12
47 14 28 85 -3 11 -27 99 -52 195 -26 96 -48 184 -49 195 -2 18 -37 31 -49 18z"/>
<path d="M468 443 c-10 -3 -18 -9 -18 -14 0 -5 -6 -9 -14 -9 -19 0 -44 -41
-67 -108 -23 -69 -24 -105 -4 -122 8 -7 15 -9 15 -5 0 4 6 3 13 -3 6 -6 14
-10 17 -9 6 1 97 -22 120 -30 18 -7 40 -13 60 -17 8 -1 22 -5 30 -8 8 -4 26
-9 40 -11 14 -3 52 -13 85 -22 33 -9 67 -18 75 -20 8 -2 29 -8 45 -15 17 -6
31 -11 33 -10 1 1 16 -1 33 -5 18 -4 36 -2 44 5 14 11 37 79 38 108 0 6 3 12
7 12 6 0 5 59 -2 91 -5 23 -49 72 -78 86 -22 11 -105 35 -163 48 -10 2 -27 7
-37 10 -10 3 -29 8 -42 11 -28 6 -31 7 -88 24 -47 14 -112 20 -142 13z"/>
<path d="M2931 433 c-18 -8 -36 -11 -42 -8 -5 4 -9 2 -9 -3 0 -5 -6 -9 -12 -9
-17 -1 -50 -9 -115 -26 -28 -8 -54 -12 -57 -9 -3 3 -6 0 -6 -6 0 -7 -9 -12
-21 -12 -11 0 -42 -9 -68 -21 -77 -32 -112 -114 -84 -194 7 -21 14 -50 16 -63
3 -41 29 -55 78 -42 24 7 51 13 59 15 8 2 51 13 95 25 153 41 240 63 253 63 6
0 12 3 12 7 0 4 6 7 13 8 38 3 114 26 128 39 19 16 12 63 -22 150 -35 87 -127
123 -218 86z"/>
</g>
</svg>
